<svg width="35" height="39" viewBox="0 0 35 39" fill="none" xmlns="http://www.w3.org/2000/svg">
<path d="M15.5134 35.5588C15.5134 34.7246 15.5136 33.8903 15.5131 33.056C15.513 32.9408 15.5503 32.8215 15.3554 32.8026C13.6177 32.6343 11.9855 32.082 10.4119 31.3623C5.49365 29.113 2.25673 25.3704 0.647644 20.2181C0.187069 18.7433 0.000866731 17.2186 1.74148e-07 15.6718C-0.000108145 15.4475 0.0502615 15.3628 0.298963 15.366C1.46416 15.3815 2.62978 15.3812 3.79498 15.3694C4.05365 15.3668 4.09556 15.4635 4.11235 15.6994C4.35347 19.0931 5.45335 22.1484 7.86314 24.6088C9.98285 26.773 12.5246 28.1764 15.576 28.6032C18.0933 28.9552 20.5174 28.6659 22.8064 27.595C26.9995 25.6332 29.6529 22.3928 30.6354 17.8332C30.7923 17.1048 30.8665 16.3649 30.8701 15.6199C30.8711 15.4259 30.9308 15.3659 31.1287 15.3673C32.3342 15.376 33.5398 15.3756 34.7453 15.3662C34.9447 15.3647 34.995 15.4292 34.9982 15.6195C35.0269 17.3467 34.7144 19.0211 34.1588 20.6446C32.4283 25.7021 29.1227 29.3449 24.2501 31.5403C22.8261 32.1819 21.3212 32.5746 19.7658 32.7496C19.5432 32.7746 19.4698 32.8507 19.4721 33.082C19.488 34.7306 19.4823 36.3794 19.5017 38.028C19.5048 38.296 19.4249 38.3535 19.1695 38.3724C18.0132 38.4583 16.8602 38.3337 15.7058 38.3503C15.4924 38.3535 15.4874 38.2498 15.4882 38.0919C15.4923 37.2474 15.4901 36.403 15.4901 35.5586C15.498 35.5588 15.5057 35.5588 15.5134 35.5588Z" fill="#F1663E"/>
<path d="M15.7333 0C15.7333 4.66901 15.7333 9.2674 15.7333 13.8655C15.6347 13.9008 15.5761 13.8274 15.5167 13.7849C14.1001 12.7702 12.5026 12.2276 10.8014 11.93C9.1231 11.6365 7.46614 11.2297 5.78144 10.9656C5.3539 10.8986 4.93763 10.758 4.64235 10.4088C4.20106 9.88709 4.21785 9.2713 4.67777 8.74324C4.88986 8.49973 5.14236 8.30053 5.39507 8.10166C8.68549 5.51336 11.9753 2.9243 15.266 0.336549C15.3985 0.232453 15.5396 0.139082 15.7333 0Z" fill="#F1663E"/>
<path d="M19.2531 0.0547028C19.5466 0.151865 19.7617 0.332434 19.9801 0.506612C22.9627 2.88499 25.9436 5.26531 28.9286 7.64054C29.3445 7.97146 29.7846 8.27021 30.1688 8.64228C30.9951 9.44266 30.769 10.4916 29.6729 10.8542C28.9554 11.0915 28.1979 11.1372 27.4584 11.2683C25.5729 11.6026 23.6812 11.9064 21.8609 12.5308C20.936 12.8481 20.0618 13.2615 19.2531 13.9008C19.2531 9.26165 19.2531 4.66944 19.2531 0.0547028Z" fill="#F1663E"/>
<path d="M19.2252 22.6983C19.1879 21.7237 19.1784 20.7478 19.3426 19.7829C19.733 17.4881 21.4951 15.7499 23.7914 15.3982C24.409 15.3036 25.033 15.3398 25.6552 15.3538C26.2473 15.3671 26.8397 15.3771 27.4316 15.3701C27.6238 15.3678 27.6971 15.4048 27.677 15.6137C27.2533 20.0053 25.0144 23.062 20.9492 24.7701C20.4884 24.9637 20.0037 25.0945 19.5031 25.1674C19.2759 25.2005 19.2215 25.1341 19.2231 24.9279C19.2285 24.1849 19.2252 23.4416 19.2252 22.6983Z" fill="#F1663E"/>
<path d="M15.6987 22.6714C15.6987 23.4456 15.6925 24.2198 15.7028 24.9939C15.7056 25.2004 15.6491 25.2474 15.4455 25.212C14.3507 25.0219 13.3608 24.5693 12.4152 24.0099C9.78116 22.4517 8.14532 20.1716 7.51241 17.1755C7.40019 16.6442 7.33725 16.1054 7.35047 15.5601C7.35307 15.451 7.32382 15.3427 7.511 15.3591C8.62496 15.4564 9.73913 15.3294 10.8533 15.3512C12.0004 15.3736 12.9819 15.822 13.8205 16.5771C15.0426 17.6775 15.6548 19.0662 15.6753 20.7116C15.6834 21.3649 15.6766 22.0182 15.6766 22.6715C15.6839 22.6714 15.6913 22.6714 15.6987 22.6714Z" fill="#F1663E"/>
</svg>
